<svg width="1200" height="780" viewBox="0 0 1200 780" fill="none" xmlns="http://www.w3.org/2000/svg">
  <rect width="1200" height="780" rx="28" fill="#F8FAFC"/>
  <rect x="36" y="32" width="1128" height="72" rx="22" fill="#FFFFFF" stroke="#E2E8F0"/>
  <circle cx="82" cy="68" r="18" fill="#DBEAFE"/>
  <text x="116" y="75" fill="#0F172A" font-family="Arial, sans-serif" font-size="28" font-weight="700">ZKVerifyHealthCred</text>
  <rect x="907" y="49" width="188" height="38" rx="19" fill="#DCFCE7"/>
  <text x="950" y="74" fill="#166534" font-family="Arial, sans-serif" font-size="18" font-weight="700">zkVerify Volta</text>

  <text x="52" y="156" fill="#0F172A" font-family="Arial, sans-serif" font-size="36" font-weight="700">Patient Dashboard</text>
  <text x="52" y="190" fill="#475569" font-family="Arial, sans-serif" font-size="20">Enter health data and generate pass/fail-only health credentials.</text>

  <rect x="52" y="228" width="516" height="188" rx="24" fill="#FFFFFF" stroke="#D1FAE5" stroke-width="2"/>
  <text x="82" y="272" fill="#0F172A" font-family="Arial, sans-serif" font-size="28" font-weight="700">Blood Pressure</text>
  <rect x="82" y="304" width="184" height="52" rx="14" fill="#F8FAFC" stroke="#CBD5E1"/>
  <rect x="286" y="304" width="184" height="52" rx="14" fill="#F8FAFC" stroke="#CBD5E1"/>
  <rect x="82" y="372" width="388" height="24" rx="12" fill="#DCFCE7"/>
  <text x="98" y="390" fill="#166534" font-family="Arial, sans-serif" font-size="18" font-weight="700">PASS - Normal</text>

  <rect x="596" y="228" width="516" height="188" rx="24" fill="#FFFFFF" stroke="#FDE68A" stroke-width="2"/>
  <text x="626" y="272" fill="#0F172A" font-family="Arial, sans-serif" font-size="28" font-weight="700">BMI</text>
  <rect x="626" y="304" width="184" height="52" rx="14" fill="#F8FAFC" stroke="#CBD5E1"/>
  <rect x="830" y="304" width="184" height="52" rx="14" fill="#F8FAFC" stroke="#CBD5E1"/>
  <rect x="626" y="372" width="388" height="24" rx="12" fill="#FEF3C7"/>
  <text x="642" y="390" fill="#92400E" font-family="Arial, sans-serif" font-size="18" font-weight="700">Derived from height and weight</text>

  <rect x="52" y="444" width="1060" height="188" rx="24" fill="#FFFFFF" stroke="#E2E8F0"/>
  <text x="82" y="488" fill="#0F172A" font-family="Arial, sans-serif" font-size="28" font-weight="700">Generated Credential Bundle</text>
  <rect x="82" y="514" width="284" height="32" rx="16" fill="#DBEAFE"/>
  <text x="98" y="536" fill="#1D4ED8" font-family="Arial, sans-serif" font-size="18" font-weight="700">Credential ID: ZKHV-7D2A-91F</text>
  <rect x="82" y="564" width="728" height="28" rx="14" fill="#F1F5F9"/>
  <rect x="832" y="556" width="220" height="44" rx="14" fill="#1D4ED8"/>
  <text x="889" y="584" fill="#FFFFFF" font-family="Arial, sans-serif" font-size="18" font-weight="700">Copy Link</text>

  <rect x="52" y="664" width="1060" height="62" rx="18" fill="#FEF3C7"/>
  <text x="82" y="703" fill="#92400E" font-family="Arial, sans-serif" font-size="20" font-weight="700">Health values remain private. Only proof outcomes and receipts leave the form.</text>
</svg>
